<svg id="Layer_1" data-name="Layer 1" xmlns="http://www.w3.org/2000/svg" viewBox="0 0 542.52 86.61"><defs><style>.cls-1{fill:#fff;}.cls-2{fill:#3b459c;}</style></defs><path class="cls-1" d="M4.34,16l.12,11.73,16.44.12L37.31,28V56.64c0,15.78.12,29,.24,29.31.19.56,1.81.63,13.93.63s13.73-.07,13.93-.63c.11-.35.23-13.53.23-29.31V28l16.25-.08,16.21-.12L98.22,16,98.3,4.35h-94Z"/><path class="cls-1" d="M104.52,4.58c-.16.12,2.71,9,6.37,19.76s9.84,29.15,13.77,40.88l7.2,21.36h34.47l.79-2.67c.43-1.46,3.46-12.4,6.73-24.28s6.22-22.66,6.57-23.92c.59-2.13,1-2.68,1.46-1.89.11.2,3.42,11.76,7.31,25.65s7.28,25.74,7.56,26.21l.43.9h33.64l.63-1.69c3-7.87,27.23-80,27-80.27s-7.17-.23-15.59-.19l-15.26.11L221.26,31c-3.5,14.56-6.53,26.64-6.77,26.88-.94.94-.86,1.26-9.71-31.79C201.63,14.38,199,4.7,199,4.58s-7.83-.19-17.39-.15l-17.43.11-6.34,25.78c-3.46,14.16-6.45,26.24-6.57,26.87-.31,1.18-1.3,1.42-1.61.36-.12-.36-2-7.48-4.13-15.82s-5.28-20.11-6.85-26.17l-2.91-11-15.54-.11C111.72,4.39,104.64,4.43,104.52,4.58Z"/><path class="cls-1" d="M265.61,16l.12,11.73,6,.2c4.76.15,6.09.31,6.37.78s.39,7.12.39,16.33-.15,16-.39,16.33-1.61.63-6.37.79l-6,.19-.12,11.22c0,6.18,0,11.61.12,12.08l.19.9h53.51l.2-.9c.12-.47.16-5.9.12-12.08l-.12-11.22-5.78-.11c-5.63-.08-5.83-.12-6.42-1s-.59-3-.51-16.68c.08-8.66.28-15.9.44-16.09a38.61,38.61,0,0,1,6.29-.51l6-.2L319.75,16l.08-11.68h-54.3Z"/><path class="cls-1" d="M364,4.82c-.91,1.22-37.9,81.06-37.7,81.41.39.59,30.3.47,30.77-.16.24-.23,1.5-3.15,2.87-6.37s2.88-6.3,3.43-6.81l.94-.86h18.45c13,0,18.73.11,19.44.43,1.18.55,2,2.32,4.17,8.46a39.74,39.74,0,0,0,2,5.15c.35.4,3.54.51,15.94.51,8.5,0,15.54-.15,15.66-.35S403.21,5.88,402.38,4.82c-.31-.36-4.64-.47-19.2-.47S364.29,4.46,364,4.82ZM383.85,26.3c.47.28,10.74,23.34,10.74,24s-1.5.83-11.41.83-11.41-.12-11.41-.83a44.53,44.53,0,0,1,1.93-4.6L378.42,35c2.83-6.61,4.13-9,4.64-9A2.17,2.17,0,0,1,383.85,26.3Z"/><path class="cls-1" d="M447.12,4.82c-.12.27-.16,18.73-.12,41l.12,40.53h27.94l.11-12.32.08-12.28h2.48A72.56,72.56,0,0,1,492,63.37a23.89,23.89,0,0,1,12.6,7.24A22,22,0,0,1,510,77.93a51.86,51.86,0,0,1,2.52,6l.7,2.24h14.48c13.11,0,14.52-.08,14.76-.63.43-1.18-.59-7.08-1.77-10.07A32,32,0,0,0,538,70.22a46.92,46.92,0,0,0-11.53-11.1l-3.66-2.4,1.18-.63c4.06-2.09,8.94-8,10.67-12.83,1.34-3.78,1.57-12.59.43-17.35-2.28-9.72-8.54-16.21-18.34-19.16-7-2.09-7.31-2.09-39.46-2.29C452.63,4.31,447.28,4.39,447.12,4.82ZM505,29.25c2,1.07,2.67,2.44,2.67,5.24s-.78,4.25-3.18,5.47c-1.46.74-2.32.78-14.8.78-10.35,0-13.38-.11-13.77-.51-.75-.75-.71-10.35,0-11.25.51-.63,1.73-.67,14.16-.55C502.32,28.55,503.94,28.62,505,29.25Z"/><path class="cls-2" d="M.08,11.69.2,23.41l16.44.12,16.41.08V52.29c0,15.78.12,29,.24,29.32.19.55,1.81.63,13.93.63s13.73-.08,13.93-.63c.11-.36.23-13.54.23-29.32V23.61l16.25-.08,16.21-.12L94,11.69,94,0H0Z"/><path class="cls-2" d="M100.26.24c-.16.11,2.71,9,6.37,19.75s9.84,29.16,13.77,40.88l7.2,21.37h34.47l.79-2.68c.43-1.45,3.46-12.39,6.73-24.28s6.22-22.66,6.57-23.92c.59-2.12,1-2.68,1.46-1.89.11.2,3.42,11.77,7.31,25.66s7.28,25.73,7.56,26.2l.43.91h33.64l.63-1.7c3-7.86,27.23-80,27-80.26S247.06,0,238.64.08L223.38.2,217,26.68c-3.5,14.56-6.53,26.64-6.76,26.87-1,1-.87,1.26-9.72-31.79C197.37,10,194.77.35,194.77.24S186.94,0,177.38.08L160,.2,153.61,26c-3.46,14.16-6.45,26.24-6.57,26.87-.31,1.18-1.3,1.42-1.61.36-.12-.36-2-7.48-4.13-15.82S136,17.27,134.45,11.21L131.54.2,116,.08C107.46,0,100.38.08,100.26.24Z"/><path class="cls-2" d="M261.35,11.69l.12,11.72,6,.2c4.76.16,6.1.31,6.37.79s.39,7.12.39,16.32-.15,16-.39,16.33-1.61.63-6.37.79l-6,.2-.12,11.21c0,6.18,0,11.61.12,12.08l.19.91h53.52l.19-.91c.12-.47.16-5.9.12-12.08L315.37,58l-5.78-.12c-5.63-.08-5.83-.12-6.42-1s-.59-3-.51-16.69c.08-8.65.28-15.89.44-16.09a40.08,40.08,0,0,1,6.29-.51l6-.2.12-11.72L315.57,0h-54.3Z"/><path class="cls-2" d="M359.76.47c-.91,1.22-37.9,81.06-37.7,81.41.4.59,30.3.47,30.77-.15.24-.24,1.5-3.15,2.87-6.38s2.88-6.29,3.43-6.81l.94-.86h18.46c13,0,18.73.12,19.43.43,1.18.55,2.05,2.32,4.17,8.46a40.83,40.83,0,0,0,2,5.16c.36.39,3.54.51,15.94.51,8.5,0,15.54-.16,15.66-.36S399,1.53,398.12.47c-.31-.35-4.64-.47-19.2-.47S360,.12,359.76.47ZM379.59,22c.47.27,10.74,23.33,10.74,24s-1.5.82-11.41.82-11.41-.11-11.41-.82a44.22,44.22,0,0,1,1.93-4.61l4.72-10.7c2.83-6.61,4.13-9,4.64-9A2,2,0,0,1,379.59,22Z"/><path class="cls-2" d="M442.86.47c-.12.28-.16,18.73-.12,41L442.86,82H470.8l.11-12.32L471,57.45h2.48A73.56,73.56,0,0,1,487.72,59a23.87,23.87,0,0,1,12.59,7.24,22,22,0,0,1,5.39,7.32,52.59,52.59,0,0,1,2.52,6l.7,2.24H523.4c13.11,0,14.52-.08,14.76-.63.43-1.18-.59-7.08-1.77-10.07a32.82,32.82,0,0,0-2.64-5.27,47.11,47.11,0,0,0-11.53-11.1l-3.66-2.4,1.18-.63c4.06-2.08,8.94-8,10.67-12.83,1.34-3.77,1.57-12.59.43-17.35C528.56,11.84,522.3,5.35,512.5,2.4,505.5.31,505.19.31,473,.12,448.37,0,443,0,442.86.47Zm57.92,24.44c2,1.06,2.67,2.44,2.67,5.23s-.78,4.25-3.18,5.47c-1.46.75-2.32.79-14.8.79-10.35,0-13.38-.12-13.77-.51-.75-.75-.71-10.35,0-11.26.51-.63,1.73-.67,14.17-.55C498.06,24.2,499.68,24.28,500.78,24.91Z"/></svg>